<?xml version="1.0" encoding="utf-8" standalone="no"?>
<!DOCTYPE svg PUBLIC "-//W3C//DTD SVG 1.1//EN"
  "http://www.w3.org/Graphics/SVG/1.1/DTD/svg11.dtd">
<!-- Created with matplotlib (https://matplotlib.org/) -->
<svg height="345.6pt" version="1.1" viewBox="0 0 460.8 345.6" width="460.8pt" xmlns="http://www.w3.org/2000/svg" xmlns:xlink="http://www.w3.org/1999/xlink">
 <defs>
  <style type="text/css">
*{stroke-linecap:butt;stroke-linejoin:round;}
  </style>
 </defs>
 <g id="figure_1">
  <g id="patch_1">
   <path d="M 0 345.6 
L 460.8 345.6 
L 460.8 0 
L 0 0 
z
" style="fill:#ffffff;"/>
  </g>
  <g id="axes_1">
   <g id="patch_2">
    <path d="M 57.6 307.584 
L 414.72 307.584 
L 414.72 41.472 
L 57.6 41.472 
z
" style="fill:#ffffff;"/>
   </g>
   <g id="matplotlib.axis_1">
    <g id="xtick_1">
     <g id="line2d_1">
      <path clip-path="url(#p0fa8baec65)" d="M 73.832727 307.584 
L 73.832727 41.472 
" style="fill:none;stroke:#b0b0b0;stroke-linecap:square;stroke-width:0.8;"/>
     </g>
     <g id="line2d_2">
      <defs>
       <path d="M 0 0 
L 0 3.5 
" id="m1ee908260d" style="stroke:#000000;stroke-width:0.8;"/>
      </defs>
      <g>
       <use style="stroke:#000000;stroke-width:0.8;" x="73.832727" xlink:href="#m1ee908260d" y="307.584"/>
      </g>
     </g>
     <g id="text_1">
      <!-- 0 -->
      <defs>
       <path d="M 31.78125 66.40625 
Q 24.171875 66.40625 20.328125 58.90625 
Q 16.5 51.421875 16.5 36.375 
Q 16.5 21.390625 20.328125 13.890625 
Q 24.171875 6.390625 31.78125 6.390625 
Q 39.453125 6.390625 43.28125 13.890625 
Q 47.125 21.390625 47.125 36.375 
Q 47.125 51.421875 43.28125 58.90625 
Q 39.453125 66.40625 31.78125 66.40625 
z
M 31.78125 74.21875 
Q 44.046875 74.21875 50.515625 64.515625 
Q 56.984375 54.828125 56.984375 36.375 
Q 56.984375 17.96875 50.515625 8.265625 
Q 44.046875 -1.421875 31.78125 -1.421875 
Q 19.53125 -1.421875 13.0625 8.265625 
Q 6.59375 17.96875 6.59375 36.375 
Q 6.59375 54.828125 13.0625 64.515625 
Q 19.53125 74.21875 31.78125 74.21875 
z
" id="DejaVuSans-48"/>
      </defs>
      <g transform="translate(70.651477 322.182437)scale(0.1 -0.1)">
       <use xlink:href="#DejaVuSans-48"/>
      </g>
     </g>
    </g>
    <g id="xtick_2">
     <g id="line2d_3">
      <path clip-path="url(#p0fa8baec65)" d="M 128.122785 307.584 
L 128.122785 41.472 
" style="fill:none;stroke:#b0b0b0;stroke-linecap:square;stroke-width:0.8;"/>
     </g>
     <g id="line2d_4">
      <g>
       <use style="stroke:#000000;stroke-width:0.8;" x="128.122785" xlink:href="#m1ee908260d" y="307.584"/>
      </g>
     </g>
     <g id="text_2">
      <!-- 50 -->
      <defs>
       <path d="M 10.796875 72.90625 
L 49.515625 72.90625 
L 49.515625 64.59375 
L 19.828125 64.59375 
L 19.828125 46.734375 
Q 21.96875 47.46875 24.109375 47.828125 
Q 26.265625 48.1875 28.421875 48.1875 
Q 40.625 48.1875 47.75 41.5 
Q 54.890625 34.8125 54.890625 23.390625 
Q 54.890625 11.625 47.5625 5.09375 
Q 40.234375 -1.421875 26.90625 -1.421875 
Q 22.3125 -1.421875 17.546875 -0.640625 
Q 12.796875 0.140625 7.71875 1.703125 
L 7.71875 11.625 
Q 12.109375 9.234375 16.796875 8.0625 
Q 21.484375 6.890625 26.703125 6.890625 
Q 35.15625 6.890625 40.078125 11.328125 
Q 45.015625 15.765625 45.015625 23.390625 
Q 45.015625 31 40.078125 35.4375 
Q 35.15625 39.890625 26.703125 39.890625 
Q 22.75 39.890625 18.8125 39.015625 
Q 14.890625 38.140625 10.796875 36.28125 
z
" id="DejaVuSans-53"/>
      </defs>
      <g transform="translate(121.760285 322.182437)scale(0.1 -0.1)">
       <use xlink:href="#DejaVuSans-53"/>
       <use x="63.623047" xlink:href="#DejaVuSans-48"/>
      </g>
     </g>
    </g>
    <g id="xtick_3">
     <g id="line2d_5">
      <path clip-path="url(#p0fa8baec65)" d="M 182.412843 307.584 
L 182.412843 41.472 
" style="fill:none;stroke:#b0b0b0;stroke-linecap:square;stroke-width:0.8;"/>
     </g>
     <g id="line2d_6">
      <g>
       <use style="stroke:#000000;stroke-width:0.8;" x="182.412843" xlink:href="#m1ee908260d" y="307.584"/>
      </g>
     </g>
     <g id="text_3">
      <!-- 100 -->
      <defs>
       <path d="M 12.40625 8.296875 
L 28.515625 8.296875 
L 28.515625 63.921875 
L 10.984375 60.40625 
L 10.984375 69.390625 
L 28.421875 72.90625 
L 38.28125 72.90625 
L 38.28125 8.296875 
L 54.390625 8.296875 
L 54.390625 0 
L 12.40625 0 
z
" id="DejaVuSans-49"/>
      </defs>
      <g transform="translate(172.869093 322.182437)scale(0.1 -0.1)">
       <use xlink:href="#DejaVuSans-49"/>
       <use x="63.623047" xlink:href="#DejaVuSans-48"/>
       <use x="127.246094" xlink:href="#DejaVuSans-48"/>
      </g>
     </g>
    </g>
    <g id="xtick_4">
     <g id="line2d_7">
      <path clip-path="url(#p0fa8baec65)" d="M 236.702901 307.584 
L 236.702901 41.472 
" style="fill:none;stroke:#b0b0b0;stroke-linecap:square;stroke-width:0.8;"/>
     </g>
     <g id="line2d_8">
      <g>
       <use style="stroke:#000000;stroke-width:0.8;" x="236.702901" xlink:href="#m1ee908260d" y="307.584"/>
      </g>
     </g>
     <g id="text_4">
      <!-- 150 -->
      <g transform="translate(227.159151 322.182437)scale(0.1 -0.1)">
       <use xlink:href="#DejaVuSans-49"/>
       <use x="63.623047" xlink:href="#DejaVuSans-53"/>
       <use x="127.246094" xlink:href="#DejaVuSans-48"/>
      </g>
     </g>
    </g>
    <g id="xtick_5">
     <g id="line2d_9">
      <path clip-path="url(#p0fa8baec65)" d="M 290.992958 307.584 
L 290.992958 41.472 
" style="fill:none;stroke:#b0b0b0;stroke-linecap:square;stroke-width:0.8;"/>
     </g>
     <g id="line2d_10">
      <g>
       <use style="stroke:#000000;stroke-width:0.8;" x="290.992958" xlink:href="#m1ee908260d" y="307.584"/>
      </g>
     </g>
     <g id="text_5">
      <!-- 200 -->
      <defs>
       <path d="M 19.1875 8.296875 
L 53.609375 8.296875 
L 53.609375 0 
L 7.328125 0 
L 7.328125 8.296875 
Q 12.9375 14.109375 22.625 23.890625 
Q 32.328125 33.6875 34.8125 36.53125 
Q 39.546875 41.84375 41.421875 45.53125 
Q 43.3125 49.21875 43.3125 52.78125 
Q 43.3125 58.59375 39.234375 62.25 
Q 35.15625 65.921875 28.609375 65.921875 
Q 23.96875 65.921875 18.8125 64.3125 
Q 13.671875 62.703125 7.8125 59.421875 
L 7.8125 69.390625 
Q 13.765625 71.78125 18.9375 73 
Q 24.125 74.21875 28.421875 74.21875 
Q 39.75 74.21875 46.484375 68.546875 
Q 53.21875 62.890625 53.21875 53.421875 
Q 53.21875 48.921875 51.53125 44.890625 
Q 49.859375 40.875 45.40625 35.40625 
Q 44.1875 33.984375 37.640625 27.21875 
Q 31.109375 20.453125 19.1875 8.296875 
z
" id="DejaVuSans-50"/>
      </defs>
      <g transform="translate(281.449208 322.182437)scale(0.1 -0.1)">
       <use xlink:href="#DejaVuSans-50"/>
       <use x="63.623047" xlink:href="#DejaVuSans-48"/>
       <use x="127.246094" xlink:href="#DejaVuSans-48"/>
      </g>
     </g>
    </g>
    <g id="xtick_6">
     <g id="line2d_11">
      <path clip-path="url(#p0fa8baec65)" d="M 345.283016 307.584 
L 345.283016 41.472 
" style="fill:none;stroke:#b0b0b0;stroke-linecap:square;stroke-width:0.8;"/>
     </g>
     <g id="line2d_12">
      <g>
       <use style="stroke:#000000;stroke-width:0.8;" x="345.283016" xlink:href="#m1ee908260d" y="307.584"/>
      </g>
     </g>
     <g id="text_6">
      <!-- 250 -->
      <g transform="translate(335.739266 322.182437)scale(0.1 -0.1)">
       <use xlink:href="#DejaVuSans-50"/>
       <use x="63.623047" xlink:href="#DejaVuSans-53"/>
       <use x="127.246094" xlink:href="#DejaVuSans-48"/>
      </g>
     </g>
    </g>
    <g id="xtick_7">
     <g id="line2d_13">
      <path clip-path="url(#p0fa8baec65)" d="M 399.573074 307.584 
L 399.573074 41.472 
" style="fill:none;stroke:#b0b0b0;stroke-linecap:square;stroke-width:0.8;"/>
     </g>
     <g id="line2d_14">
      <g>
       <use style="stroke:#000000;stroke-width:0.8;" x="399.573074" xlink:href="#m1ee908260d" y="307.584"/>
      </g>
     </g>
     <g id="text_7">
      <!-- 300 -->
      <defs>
       <path d="M 40.578125 39.3125 
Q 47.65625 37.796875 51.625 33 
Q 55.609375 28.21875 55.609375 21.1875 
Q 55.609375 10.40625 48.1875 4.484375 
Q 40.765625 -1.421875 27.09375 -1.421875 
Q 22.515625 -1.421875 17.65625 -0.515625 
Q 12.796875 0.390625 7.625 2.203125 
L 7.625 11.71875 
Q 11.71875 9.328125 16.59375 8.109375 
Q 21.484375 6.890625 26.8125 6.890625 
Q 36.078125 6.890625 40.9375 10.546875 
Q 45.796875 14.203125 45.796875 21.1875 
Q 45.796875 27.640625 41.28125 31.265625 
Q 36.765625 34.90625 28.71875 34.90625 
L 20.21875 34.90625 
L 20.21875 43.015625 
L 29.109375 43.015625 
Q 36.375 43.015625 40.234375 45.921875 
Q 44.09375 48.828125 44.09375 54.296875 
Q 44.09375 59.90625 40.109375 62.90625 
Q 36.140625 65.921875 28.71875 65.921875 
Q 24.65625 65.921875 20.015625 65.03125 
Q 15.375 64.15625 9.8125 62.3125 
L 9.8125 71.09375 
Q 15.4375 72.65625 20.34375 73.4375 
Q 25.25 74.21875 29.59375 74.21875 
Q 40.828125 74.21875 47.359375 69.109375 
Q 53.90625 64.015625 53.90625 55.328125 
Q 53.90625 49.265625 50.4375 45.09375 
Q 46.96875 40.921875 40.578125 39.3125 
z
" id="DejaVuSans-51"/>
      </defs>
      <g transform="translate(390.029324 322.182437)scale(0.1 -0.1)">
       <use xlink:href="#DejaVuSans-51"/>
       <use x="63.623047" xlink:href="#DejaVuSans-48"/>
       <use x="127.246094" xlink:href="#DejaVuSans-48"/>
      </g>
     </g>
    </g>
    <g id="text_8">
     <!-- Generations -->
     <defs>
      <path d="M 59.515625 10.40625 
L 59.515625 29.984375 
L 43.40625 29.984375 
L 43.40625 38.09375 
L 69.28125 38.09375 
L 69.28125 6.78125 
Q 63.578125 2.734375 56.6875 0.65625 
Q 49.8125 -1.421875 42 -1.421875 
Q 24.90625 -1.421875 15.25 8.5625 
Q 5.609375 18.5625 5.609375 36.375 
Q 5.609375 54.25 15.25 64.234375 
Q 24.90625 74.21875 42 74.21875 
Q 49.125 74.21875 55.546875 72.453125 
Q 61.96875 70.703125 67.390625 67.28125 
L 67.390625 56.78125 
Q 61.921875 61.421875 55.765625 63.765625 
Q 49.609375 66.109375 42.828125 66.109375 
Q 29.4375 66.109375 22.71875 58.640625 
Q 16.015625 51.171875 16.015625 36.375 
Q 16.015625 21.625 22.71875 14.15625 
Q 29.4375 6.6875 42.828125 6.6875 
Q 48.046875 6.6875 52.140625 7.59375 
Q 56.25 8.5 59.515625 10.40625 
z
" id="DejaVuSans-71"/>
      <path d="M 56.203125 29.59375 
L 56.203125 25.203125 
L 14.890625 25.203125 
Q 15.484375 15.921875 20.484375 11.0625 
Q 25.484375 6.203125 34.421875 6.203125 
Q 39.59375 6.203125 44.453125 7.46875 
Q 49.3125 8.734375 54.109375 11.28125 
L 54.109375 2.78125 
Q 49.265625 0.734375 44.1875 -0.34375 
Q 39.109375 -1.421875 33.890625 -1.421875 
Q 20.796875 -1.421875 13.15625 6.1875 
Q 5.515625 13.8125 5.515625 26.8125 
Q 5.515625 40.234375 12.765625 48.109375 
Q 20.015625 56 32.328125 56 
Q 43.359375 56 49.78125 48.890625 
Q 56.203125 41.796875 56.203125 29.59375 
z
M 47.21875 32.234375 
Q 47.125 39.59375 43.09375 43.984375 
Q 39.0625 48.390625 32.421875 48.390625 
Q 24.90625 48.390625 20.390625 44.140625 
Q 15.875 39.890625 15.1875 32.171875 
z
" id="DejaVuSans-101"/>
      <path d="M 54.890625 33.015625 
L 54.890625 0 
L 45.90625 0 
L 45.90625 32.71875 
Q 45.90625 40.484375 42.875 44.328125 
Q 39.84375 48.1875 33.796875 48.1875 
Q 26.515625 48.1875 22.3125 43.546875 
Q 18.109375 38.921875 18.109375 30.90625 
L 18.109375 0 
L 9.078125 0 
L 9.078125 54.6875 
L 18.109375 54.6875 
L 18.109375 46.1875 
Q 21.34375 51.125 25.703125 53.5625 
Q 30.078125 56 35.796875 56 
Q 45.21875 56 50.046875 50.171875 
Q 54.890625 44.34375 54.890625 33.015625 
z
" id="DejaVuSans-110"/>
      <path d="M 41.109375 46.296875 
Q 39.59375 47.171875 37.8125 47.578125 
Q 36.03125 48 33.890625 48 
Q 26.265625 48 22.1875 43.046875 
Q 18.109375 38.09375 18.109375 28.8125 
L 18.109375 0 
L 9.078125 0 
L 9.078125 54.6875 
L 18.109375 54.6875 
L 18.109375 46.1875 
Q 20.953125 51.171875 25.484375 53.578125 
Q 30.03125 56 36.53125 56 
Q 37.453125 56 38.578125 55.875 
Q 39.703125 55.765625 41.0625 55.515625 
z
" id="DejaVuSans-114"/>
      <path d="M 34.28125 27.484375 
Q 23.390625 27.484375 19.1875 25 
Q 14.984375 22.515625 14.984375 16.5 
Q 14.984375 11.71875 18.140625 8.90625 
Q 21.296875 6.109375 26.703125 6.109375 
Q 34.1875 6.109375 38.703125 11.40625 
Q 43.21875 16.703125 43.21875 25.484375 
L 43.21875 27.484375 
z
M 52.203125 31.203125 
L 52.203125 0 
L 43.21875 0 
L 43.21875 8.296875 
Q 40.140625 3.328125 35.546875 0.953125 
Q 30.953125 -1.421875 24.3125 -1.421875 
Q 15.921875 -1.421875 10.953125 3.296875 
Q 6 8.015625 6 15.921875 
Q 6 25.140625 12.171875 29.828125 
Q 18.359375 34.515625 30.609375 34.515625 
L 43.21875 34.515625 
L 43.21875 35.40625 
Q 43.21875 41.609375 39.140625 45 
Q 35.0625 48.390625 27.6875 48.390625 
Q 23 48.390625 18.546875 47.265625 
Q 14.109375 46.140625 10.015625 43.890625 
L 10.015625 52.203125 
Q 14.9375 54.109375 19.578125 55.046875 
Q 24.21875 56 28.609375 56 
Q 40.484375 56 46.34375 49.84375 
Q 52.203125 43.703125 52.203125 31.203125 
z
" id="DejaVuSans-97"/>
      <path d="M 18.3125 70.21875 
L 18.3125 54.6875 
L 36.8125 54.6875 
L 36.8125 47.703125 
L 18.3125 47.703125 
L 18.3125 18.015625 
Q 18.3125 11.328125 20.140625 9.421875 
Q 21.96875 7.515625 27.59375 7.515625 
L 36.8125 7.515625 
L 36.8125 0 
L 27.59375 0 
Q 17.1875 0 13.234375 3.875 
Q 9.28125 7.765625 9.28125 18.015625 
L 9.28125 47.703125 
L 2.6875 47.703125 
L 2.6875 54.6875 
L 9.28125 54.6875 
L 9.28125 70.21875 
z
" id="DejaVuSans-116"/>
      <path d="M 9.421875 54.6875 
L 18.40625 54.6875 
L 18.40625 0 
L 9.421875 0 
z
M 9.421875 75.984375 
L 18.40625 75.984375 
L 18.40625 64.59375 
L 9.421875 64.59375 
z
" id="DejaVuSans-105"/>
      <path d="M 30.609375 48.390625 
Q 23.390625 48.390625 19.1875 42.75 
Q 14.984375 37.109375 14.984375 27.296875 
Q 14.984375 17.484375 19.15625 11.84375 
Q 23.34375 6.203125 30.609375 6.203125 
Q 37.796875 6.203125 41.984375 11.859375 
Q 46.1875 17.53125 46.1875 27.296875 
Q 46.1875 37.015625 41.984375 42.703125 
Q 37.796875 48.390625 30.609375 48.390625 
z
M 30.609375 56 
Q 42.328125 56 49.015625 48.375 
Q 55.71875 40.765625 55.71875 27.296875 
Q 55.71875 13.875 49.015625 6.21875 
Q 42.328125 -1.421875 30.609375 -1.421875 
Q 18.84375 -1.421875 12.171875 6.21875 
Q 5.515625 13.875 5.515625 27.296875 
Q 5.515625 40.765625 12.171875 48.375 
Q 18.84375 56 30.609375 56 
z
" id="DejaVuSans-111"/>
      <path d="M 44.28125 53.078125 
L 44.28125 44.578125 
Q 40.484375 46.53125 36.375 47.5 
Q 32.28125 48.484375 27.875 48.484375 
Q 21.1875 48.484375 17.84375 46.4375 
Q 14.5 44.390625 14.5 40.28125 
Q 14.5 37.15625 16.890625 35.375 
Q 19.28125 33.59375 26.515625 31.984375 
L 29.59375 31.296875 
Q 39.15625 29.25 43.1875 25.515625 
Q 47.21875 21.78125 47.21875 15.09375 
Q 47.21875 7.46875 41.1875 3.015625 
Q 35.15625 -1.421875 24.609375 -1.421875 
Q 20.21875 -1.421875 15.453125 -0.5625 
Q 10.6875 0.296875 5.421875 2 
L 5.421875 11.28125 
Q 10.40625 8.6875 15.234375 7.390625 
Q 20.0625 6.109375 24.8125 6.109375 
Q 31.15625 6.109375 34.5625 8.28125 
Q 37.984375 10.453125 37.984375 14.40625 
Q 37.984375 18.0625 35.515625 20.015625 
Q 33.0625 21.96875 24.703125 23.78125 
L 21.578125 24.515625 
Q 13.234375 26.265625 9.515625 29.90625 
Q 5.8125 33.546875 5.8125 39.890625 
Q 5.8125 47.609375 11.28125 51.796875 
Q 16.75 56 26.8125 56 
Q 31.78125 56 36.171875 55.265625 
Q 40.578125 54.546875 44.28125 53.078125 
z
" id="DejaVuSans-115"/>
     </defs>
     <g transform="translate(205.662344 335.860562)scale(0.1 -0.1)">
      <use xlink:href="#DejaVuSans-71"/>
      <use x="77.490234" xlink:href="#DejaVuSans-101"/>
      <use x="139.013672" xlink:href="#DejaVuSans-110"/>
      <use x="202.392578" xlink:href="#DejaVuSans-101"/>
      <use x="263.916016" xlink:href="#DejaVuSans-114"/>
      <use x="305.029297" xlink:href="#DejaVuSans-97"/>
      <use x="366.308594" xlink:href="#DejaVuSans-116"/>
      <use x="405.517578" xlink:href="#DejaVuSans-105"/>
      <use x="433.300781" xlink:href="#DejaVuSans-111"/>
      <use x="494.482422" xlink:href="#DejaVuSans-110"/>
      <use x="557.861328" xlink:href="#DejaVuSans-115"/>
     </g>
    </g>
   </g>
   <g id="matplotlib.axis_2">
    <g id="ytick_1">
     <g id="line2d_15">
      <path clip-path="url(#p0fa8baec65)" d="M 57.6 221.790257 
L 414.72 221.790257 
" style="fill:none;stroke:#b0b0b0;stroke-linecap:square;stroke-width:0.8;"/>
     </g>
     <g id="line2d_16">
      <defs>
       <path d="M 0 0 
L -3.5 0 
" id="m2ef834fc32" style="stroke:#000000;stroke-width:0.8;"/>
      </defs>
      <g>
       <use style="stroke:#000000;stroke-width:0.8;" x="57.6" xlink:href="#m2ef834fc32" y="221.790257"/>
      </g>
     </g>
     <g id="text_9">
      <!-- $\mathdefault{10^{1}}$ -->
      <g transform="translate(33 225.589475)scale(0.1 -0.1)">
       <use transform="translate(0 0.684375)" xlink:href="#DejaVuSans-49"/>
       <use transform="translate(63.623047 0.684375)" xlink:href="#DejaVuSans-48"/>
       <use transform="translate(128.203125 38.965625)scale(0.7)" xlink:href="#DejaVuSans-49"/>
      </g>
     </g>
    </g>
    <g id="ytick_2">
     <g id="line2d_17">
      <path clip-path="url(#p0fa8baec65)" d="M 57.6 92.230695 
L 414.72 92.230695 
" style="fill:none;stroke:#b0b0b0;stroke-linecap:square;stroke-width:0.8;"/>
     </g>
     <g id="line2d_18">
      <g>
       <use style="stroke:#000000;stroke-width:0.8;" x="57.6" xlink:href="#m2ef834fc32" y="92.230695"/>
      </g>
     </g>
     <g id="text_10">
      <!-- $\mathdefault{10^{2}}$ -->
      <g transform="translate(33 96.029914)scale(0.1 -0.1)">
       <use transform="translate(0 0.765625)" xlink:href="#DejaVuSans-49"/>
       <use transform="translate(63.623047 0.765625)" xlink:href="#DejaVuSans-48"/>
       <use transform="translate(128.203125 39.046875)scale(0.7)" xlink:href="#DejaVuSans-50"/>
      </g>
     </g>
    </g>
    <g id="ytick_3">
     <g id="line2d_19">
      <defs>
       <path d="M 0 0 
L -2 0 
" id="m8907f5d722" style="stroke:#000000;stroke-width:0.6;"/>
      </defs>
      <g>
       <use style="stroke:#000000;stroke-width:0.6;" x="57.6" xlink:href="#m8907f5d722" y="221.790257"/>
      </g>
     </g>
    </g>
    <g id="ytick_4">
     <g id="line2d_20">
      <g>
       <use style="stroke:#000000;stroke-width:0.6;" x="57.6" xlink:href="#m8907f5d722" y="92.230695"/>
      </g>
     </g>
    </g>
    <g id="text_11">
     <!-- Fitness -->
     <defs>
      <path d="M 9.8125 72.90625 
L 51.703125 72.90625 
L 51.703125 64.59375 
L 19.671875 64.59375 
L 19.671875 43.109375 
L 48.578125 43.109375 
L 48.578125 34.8125 
L 19.671875 34.8125 
L 19.671875 0 
L 9.8125 0 
z
" id="DejaVuSans-70"/>
     </defs>
     <g transform="translate(26.920312 192.202219)rotate(-90)scale(0.1 -0.1)">
      <use xlink:href="#DejaVuSans-70"/>
      <use x="57.410156" xlink:href="#DejaVuSans-105"/>
      <use x="85.193359" xlink:href="#DejaVuSans-116"/>
      <use x="124.402344" xlink:href="#DejaVuSans-110"/>
      <use x="187.78125" xlink:href="#DejaVuSans-101"/>
      <use x="249.304688" xlink:href="#DejaVuSans-115"/>
      <use x="301.404297" xlink:href="#DejaVuSans-115"/>
     </g>
    </g>
   </g>
   <g id="line2d_21">
    <path clip-path="url(#p0fa8baec65)" d="M 73.832727 291.831129 
L 74.918528 290.602768 
L 76.00433 285.419378 
L 78.175932 289.520202 
L 79.261733 285.334229 
L 80.347534 289.650093 
L 81.433335 288.44106 
L 82.519137 284.430704 
L 83.604938 293.746291 
L 84.690739 268.776379 
L 85.77654 286.261579 
L 86.862341 285.473569 
L 87.948142 290.655711 
L 89.033943 287.589968 
L 90.119745 286.737972 
L 91.205546 286.976681 
L 92.291347 284.396066 
L 93.377148 293.546017 
L 94.462949 286.788921 
L 95.54875 263.207592 
L 96.634552 280.064393 
L 97.720353 257.533877 
L 98.806154 263.811221 
L 99.891955 290.093199 
L 100.977756 280.247169 
L 102.063557 276.608364 
L 103.149358 284.527726 
L 104.23516 266.769311 
L 105.320961 280.404806 
L 106.406762 265.030101 
L 107.492563 284.971919 
L 108.578364 287.662196 
L 109.664165 282.908973 
L 110.749967 295.488 
L 111.835768 291.991161 
L 112.921569 294.002679 
L 114.00737 290.484652 
L 115.093171 281.281029 
L 116.178972 285.713502 
L 117.264773 280.386271 
L 118.350575 291.159791 
L 119.436376 280.804502 
L 120.522177 278.643161 
L 121.607978 274.566522 
L 122.693779 266.574051 
L 123.77958 277.046158 
L 124.865382 271.111924 
L 125.951183 283.744657 
L 127.036984 294.080042 
L 128.122785 287.091888 
L 129.208586 293.056054 
L 130.294387 281.771729 
L 131.380189 260.687368 
L 132.46599 274.084285 
L 133.551791 280.640377 
L 134.637592 284.049721 
L 135.723393 265.239095 
L 136.809194 294.098252 
L 137.894995 292.78675 
L 138.980797 257.552581 
L 140.066598 258.533358 
L 141.152399 280.423506 
L 142.2382 287.204015 
L 143.324001 291.321502 
L 144.409802 285.579258 
L 145.495604 272.928485 
L 146.581405 281.703466 
L 147.667206 278.053135 
L 148.753007 293.215134 
L 149.838808 290.513272 
L 150.924609 285.754657 
L 152.01041 284.366339 
L 153.096212 286.617596 
L 154.182013 285.806901 
L 155.267814 286.073228 
L 156.353615 283.36068 
L 157.439416 282.136387 
L 158.525217 273.419639 
L 159.611019 291.987262 
L 160.69682 286.402417 
L 161.782621 283.371221 
L 162.868422 294.488195 
L 163.954223 260.297029 
L 165.040024 233.658449 
L 166.125825 274.260039 
L 167.211627 293.41622 
L 168.297428 277.121303 
L 169.383229 285.27556 
L 170.46903 294.960497 
L 171.554831 286.552739 
L 172.640632 283.668898 
L 173.726434 281.351328 
L 174.812235 287.994792 
L 176.983837 283.665946 
L 178.069638 279.43783 
L 179.155439 271.195291 
L 180.24124 265.314229 
L 181.327042 293.470028 
L 182.412843 291.339966 
L 183.498644 293.222563 
L 184.584445 283.763991 
L 185.670246 287.841055 
L 186.756047 276.179351 
L 187.841849 283.187272 
L 188.92765 291.431278 
L 190.013451 264.53866 
L 191.099252 275.932341 
L 192.185053 268.493154 
L 193.270854 267.470844 
L 194.356656 249.911142 
L 195.442457 234.734852 
L 196.528258 256.873097 
L 197.614059 273.635845 
L 198.69986 236.252677 
L 199.785661 253.821839 
L 200.871462 256.263384 
L 201.957264 280.166585 
L 203.043065 270.142588 
L 204.128866 250.005575 
L 205.214667 243.395238 
L 206.300468 250.721956 
L 207.386269 238.818207 
L 208.472071 239.876991 
L 209.557872 258.368742 
L 210.643673 236.157494 
L 211.729474 220.628974 
L 212.815275 273.037046 
L 213.901076 289.793022 
L 214.986877 270.742835 
L 216.072679 257.700146 
L 217.15848 258.693452 
L 218.244281 288.056128 
L 219.330082 273.722798 
L 220.415883 269.73625 
L 221.501684 216.35984 
L 222.587486 267.900173 
L 223.673287 233.27704 
L 224.759088 229.219798 
L 225.844889 236.21252 
L 226.93069 261.292902 
L 228.016491 262.639441 
L 229.102292 238.546275 
L 230.188094 282.781455 
L 231.273895 260.098693 
L 232.359696 234.864469 
L 233.445497 175.556035 
L 234.531298 242.797092 
L 235.617099 260.295823 
L 236.702901 275.686789 
L 237.788702 247.716557 
L 238.874503 205.801551 
L 239.960304 237.072662 
L 241.046105 250.980832 
L 242.131906 202.105726 
L 243.217708 207.630605 
L 244.303509 259.982028 
L 245.38931 264.826639 
L 246.475111 257.610015 
L 247.560912 257.417437 
L 248.646713 228.261813 
L 249.732514 251.500248 
L 250.818316 202.943348 
L 251.904117 216.112846 
L 252.989918 220.076108 
L 254.075719 220.934883 
L 255.16152 230.849751 
L 256.247321 185.222893 
L 257.333123 276.486195 
L 258.418924 205.211765 
L 259.504725 272.899893 
L 260.590526 232.356887 
L 261.676327 212.106856 
L 262.762128 203.150684 
L 263.847929 273.914032 
L 264.933731 211.708499 
L 266.019532 195.608075 
L 267.105333 238.863662 
L 268.191134 179.192485 
L 269.276935 197.113682 
L 270.362736 271.146799 
L 271.448538 262.652711 
L 272.534339 242.835328 
L 273.62014 162.249864 
L 274.705941 234.407068 
L 275.791742 178.210856 
L 276.877543 172.659908 
L 277.963344 190.812981 
L 279.049146 200.354285 
L 280.134947 169.93221 
L 281.220748 230.434105 
L 282.306549 200.459186 
L 283.39235 181.745086 
L 284.478151 254.046713 
L 285.563953 160.932538 
L 286.649754 248.011333 
L 287.735555 231.067259 
L 288.821356 192.296836 
L 289.907157 184.411957 
L 290.992958 195.734957 
L 292.07876 174.690691 
L 294.250362 222.618476 
L 295.336163 210.485776 
L 296.421964 194.64055 
L 297.507765 182.680189 
L 298.593566 245.874603 
L 299.679368 187.254738 
L 300.765169 248.145997 
L 301.85097 199.238398 
L 302.936771 193.859867 
L 304.022572 183.406137 
L 305.108373 226.38948 
L 306.194175 130.900304 
L 307.279976 167.063037 
L 308.365777 213.653791 
L 309.451578 181.991585 
L 310.537379 178.512714 
L 311.62318 100.701562 
L 312.708981 196.340495 
L 313.794783 106.39703 
L 314.880584 176.165268 
L 315.966385 174.11921 
L 317.052186 152.89681 
L 318.137987 127.915751 
L 319.223788 264.043359 
L 320.30959 222.448227 
L 321.395391 263.024387 
L 322.481192 240.439375 
L 323.566993 142.662021 
L 324.652794 126.889838 
L 325.738595 194.591392 
L 326.824396 139.877389 
L 327.910198 214.372404 
L 328.995999 217.244719 
L 330.0818 138.815416 
L 331.167601 263.337022 
L 332.253402 218.292417 
L 333.339203 126.628913 
L 334.425005 173.246133 
L 335.510806 112.556976 
L 336.596607 254.985703 
L 337.682408 226.568475 
L 338.768209 124.51232 
L 339.85401 246.405056 
L 340.939811 263.555794 
L 342.025613 191.043252 
L 343.111414 166.856874 
L 344.197215 95.317548 
L 345.283016 105.312514 
L 346.368817 222.251751 
L 347.454618 194.155247 
L 348.54042 208.59585 
L 349.626221 200.431013 
L 350.712022 212.187649 
L 351.797823 164.057972 
L 352.883624 157.1607 
L 353.969425 176.047647 
L 355.055227 191.956004 
L 356.141028 204.85065 
L 357.226829 216.074033 
L 358.31263 187.764715 
L 359.398431 179.604002 
L 360.484232 106.703979 
L 361.570033 164.442168 
L 362.655835 83.006187 
L 363.741636 255.860077 
L 364.827437 240.910033 
L 365.913238 239.873163 
L 366.999039 175.778688 
L 368.08484 91.955578 
L 369.170642 155.826658 
L 370.256443 133.58434 
L 371.342244 190.974498 
L 372.428045 190.30077 
L 373.513846 163.46601 
L 374.599647 209.16694 
L 375.685448 138.577834 
L 376.77125 230.403179 
L 377.857051 191.098442 
L 378.942852 246.318411 
L 380.028653 155.198128 
L 381.114454 127.608378 
L 382.200255 95.435556 
L 383.286057 162.774983 
L 384.371858 129.118926 
L 385.457659 130.84006 
L 386.54346 231.748553 
L 387.629261 74.952099 
L 388.715062 116.750121 
L 389.800863 173.164393 
L 390.886665 127.684268 
L 391.972466 215.20116 
L 393.058267 241.234544 
L 394.144068 120.836009 
L 395.229869 164.251079 
L 396.31567 198.850418 
L 397.401472 193.939667 
L 398.487273 168.16138 
L 398.487273 168.16138 
" style="fill:none;stroke:#0000ff;stroke-linecap:square;stroke-width:1.5;"/>
   </g>
   <g id="line2d_22">
    <path clip-path="url(#p0fa8baec65)" d="M 73.832727 248.254661 
L 74.918528 242.212388 
L 76.00433 229.680901 
L 78.175932 247.252477 
L 79.261733 233.78152 
L 80.347534 248.892441 
L 81.433335 244.531232 
L 82.519137 235.631434 
L 83.604938 258.636908 
L 84.690739 194.908462 
L 85.77654 237.725965 
L 86.862341 237.409493 
L 87.948142 252.460344 
L 89.033943 239.165826 
L 90.119745 238.427382 
L 91.205546 239.49398 
L 92.291347 232.41139 
L 93.377148 255.777004 
L 94.462949 241.597061 
L 95.54875 185.511568 
L 96.634552 229.338861 
L 97.720353 180.875136 
L 98.806154 202.272591 
L 99.891955 237.769122 
L 100.977756 218.845277 
L 102.063557 221.417408 
L 103.149358 233.348519 
L 104.23516 199.824593 
L 105.320961 227.824269 
L 106.406762 187.791264 
L 107.492563 243.90292 
L 108.578364 242.968658 
L 109.664165 221.338659 
L 110.749967 261.802064 
L 111.835768 253.146158 
L 112.921569 260.328448 
L 114.00737 244.544671 
L 115.093171 226.744177 
L 116.178972 236.545389 
L 117.264773 225.034828 
L 118.350575 248.808968 
L 119.436376 223.51418 
L 120.522177 223.492905 
L 121.607978 214.857638 
L 122.693779 204.76777 
L 123.77958 225.35485 
L 124.865382 208.570089 
L 125.951183 237.657512 
L 127.036984 257.322661 
L 128.122785 241.015616 
L 129.208586 253.723865 
L 130.294387 226.87018 
L 131.380189 194.225444 
L 132.46599 218.807304 
L 133.551791 229.727335 
L 134.637592 237.224715 
L 135.723393 191.9598 
L 136.809194 262.068389 
L 137.894995 255.502864 
L 138.980797 170.508634 
L 140.066598 196.564276 
L 141.152399 233.290849 
L 142.2382 247.82555 
L 143.324001 254.022867 
L 144.409802 231.018957 
L 145.495604 201.447315 
L 146.581405 238.09409 
L 147.667206 222.66097 
L 148.753007 258.162361 
L 149.838808 242.198962 
L 150.924609 237.736134 
L 152.01041 231.399797 
L 153.096212 241.060528 
L 154.182013 241.343629 
L 155.267814 242.776636 
L 157.439416 226.133801 
L 158.525217 212.9069 
L 159.611019 252.140284 
L 161.782621 232.476793 
L 162.868422 261.750074 
L 163.954223 174.751817 
L 165.040024 160.416913 
L 166.125825 225.944343 
L 167.211627 260.002632 
L 168.297428 217.805035 
L 169.383229 228.40031 
L 170.46903 265.604771 
L 172.640632 217.093776 
L 173.726434 228.429939 
L 174.812235 248.786864 
L 175.898036 239.71385 
L 176.983837 238.015725 
L 178.069638 229.742241 
L 179.155439 205.533616 
L 180.24124 199.899627 
L 181.327042 259.083097 
L 182.412843 245.64344 
L 183.498644 261.245213 
L 184.584445 234.326758 
L 185.670246 247.467075 
L 186.756047 220.413888 
L 187.841849 238.83269 
L 188.92765 248.786791 
L 190.013451 197.53318 
L 191.099252 223.272236 
L 192.185053 189.977757 
L 193.270854 214.18123 
L 194.356656 184.347094 
L 195.442457 168.728158 
L 196.528258 200.264717 
L 197.614059 225.535525 
L 198.69986 167.891014 
L 199.785661 197.070786 
L 200.871462 201.093402 
L 201.957264 234.308717 
L 204.128866 188.881975 
L 205.214667 183.839471 
L 206.300468 194.522579 
L 207.386269 178.71421 
L 208.472071 178.507386 
L 209.557872 200.835741 
L 210.643673 179.488556 
L 211.729474 162.373441 
L 212.815275 235.913671 
L 213.901076 258.566726 
L 214.986877 216.085417 
L 216.072679 206.655053 
L 217.15848 193.44972 
L 218.244281 255.325573 
L 219.330082 222.273923 
L 220.415883 224.569415 
L 221.501684 158.684657 
L 222.587486 206.78994 
L 223.673287 177.885591 
L 224.759088 181.515791 
L 225.844889 189.436508 
L 226.93069 222.25333 
L 228.016491 214.105842 
L 229.102292 188.372295 
L 230.188094 242.719532 
L 231.273895 210.102201 
L 232.359696 186.054467 
L 233.445497 124.7965 
L 234.531298 187.043765 
L 235.617099 190.999835 
L 236.702901 221.816582 
L 237.788702 198.391543 
L 238.874503 157.38313 
L 239.960304 198.003743 
L 241.046105 206.203095 
L 242.131906 153.642633 
L 243.217708 159.110696 
L 244.303509 199.453111 
L 245.38931 197.727564 
L 246.475111 218.930699 
L 247.560912 220.533683 
L 248.646713 180.320262 
L 249.732514 208.899636 
L 250.818316 155.801995 
L 251.904117 171.463522 
L 252.989918 180.547931 
L 254.075719 177.563147 
L 255.16152 190.200722 
L 256.247321 137.100632 
L 257.333123 221.452825 
L 258.418924 153.625102 
L 259.504725 223.336628 
L 260.590526 188.324322 
L 261.676327 173.365883 
L 262.762128 164.627071 
L 263.847929 237.098706 
L 264.933731 166.867872 
L 266.019532 159.581701 
L 267.105333 174.25139 
L 268.191134 138.193427 
L 269.276935 131.548932 
L 270.362736 232.033921 
L 271.448538 214.268609 
L 272.534339 204.118693 
L 273.62014 122.027033 
L 274.705941 207.398689 
L 275.791742 144.841272 
L 276.877543 142.531655 
L 277.963344 159.988294 
L 279.049146 163.662056 
L 280.134947 137.844635 
L 281.220748 201.195204 
L 282.306549 163.123929 
L 283.39235 152.567776 
L 284.478151 205.07878 
L 285.563953 126.054417 
L 286.649754 169.829432 
L 287.735555 201.304701 
L 288.821356 151.070519 
L 289.907157 154.999874 
L 290.992958 165.832475 
L 292.07876 149.445398 
L 293.164561 152.44537 
L 294.250362 193.625324 
L 295.336163 171.446298 
L 296.421964 164.918035 
L 297.507765 157.584909 
L 298.593566 193.695133 
L 299.679368 159.115139 
L 300.765169 200.896008 
L 301.85097 149.135015 
L 302.936771 170.82878 
L 304.022572 160.744179 
L 305.108373 167.552107 
L 306.194175 109.685299 
L 307.279976 120.76401 
L 308.365777 187.737047 
L 309.451578 162.088645 
L 310.537379 157.870142 
L 311.62318 79.179629 
L 312.708981 130.010956 
L 313.794783 86.331958 
L 314.880584 154.77579 
L 315.966385 144.957546 
L 317.052186 128.934988 
L 318.137987 107.893337 
L 319.223788 235.780871 
L 320.30959 200.096649 
L 321.395391 234.46319 
L 322.481192 186.543223 
L 323.566993 114.298418 
L 324.652794 107.499489 
L 325.738595 176.988968 
L 326.824396 121.870166 
L 327.910198 190.291233 
L 328.995999 199.8213 
L 330.0818 120.73509 
L 331.167601 233.992662 
L 332.253402 195.178236 
L 333.339203 107.655995 
L 334.425005 151.691367 
L 335.510806 93.619245 
L 336.596607 216.215821 
L 337.682408 169.928999 
L 338.768209 107.110141 
L 339.85401 197.55705 
L 340.939811 223.869957 
L 343.111414 122.203838 
L 344.197215 77.857033 
L 345.283016 89.888515 
L 346.368817 163.784078 
L 347.454618 177.42245 
L 348.54042 183.62074 
L 349.626221 160.92211 
L 350.712022 180.849645 
L 351.797823 144.99427 
L 352.883624 128.422928 
L 353.969425 155.406173 
L 355.055227 164.40908 
L 356.141028 175.619464 
L 357.226829 195.343009 
L 358.31263 161.700266 
L 359.398431 149.207117 
L 360.484232 88.228041 
L 361.570033 133.143121 
L 362.655835 65.066912 
L 363.741636 221.043803 
L 364.827437 181.69611 
L 365.913238 191.174878 
L 366.999039 159.29506 
L 368.08484 75.112149 
L 369.170642 129.791398 
L 370.256443 113.524468 
L 371.342244 143.581068 
L 372.428045 169.340261 
L 373.513846 145.021347 
L 374.599647 176.304408 
L 375.685448 122.21402 
L 376.77125 175.895834 
L 377.857051 171.603422 
L 378.942852 199.222323 
L 380.028653 136.055614 
L 381.114454 113.661269 
L 382.200255 78.675483 
L 383.286057 146.776347 
L 384.371858 115.111928 
L 385.457659 102.901238 
L 386.54346 179.383529 
L 387.629261 61.308301 
L 388.715062 88.636982 
L 389.800863 135.215658 
L 390.886665 111.81671 
L 391.972466 201.470197 
L 393.058267 194.51801 
L 394.144068 105.024667 
L 395.229869 136.867045 
L 396.31567 163.89547 
L 397.401472 151.460041 
L 398.487273 148.170312 
L 398.487273 148.170312 
" style="fill:none;stroke:#008000;stroke-dasharray:9.6,2.4,1.5,2.4;stroke-dashoffset:0;stroke-width:1.5;"/>
   </g>
   <g id="line2d_23">
    <path clip-path="url(#p0fa8baec65)" d="M 73.832727 149.559868 
L 74.918528 120.692688 
L 76.00433 100.913671 
L 77.090131 132.139561 
L 78.175932 149.404219 
L 79.261733 126.693631 
L 80.347534 173.001111 
L 81.433335 140.376463 
L 82.519137 149.404219 
L 83.604938 173.954812 
L 84.690739 77.685073 
L 85.77654 114.512988 
L 86.862341 140.77505 
L 87.948142 161.882175 
L 89.033943 133.061992 
L 90.119745 150.344637 
L 91.205546 140.376463 
L 92.291347 119.492526 
L 93.377148 150.029415 
L 94.462949 150.820806 
L 95.54875 86.308002 
L 96.634552 120.599453 
L 97.720353 77.72854 
L 98.806154 89.861788 
L 99.891955 105.351816 
L 100.977756 109.401549 
L 102.063557 131.683956 
L 103.149358 126.693631 
L 104.23516 105.351816 
L 105.320961 133.178366 
L 106.406762 89.753997 
L 107.492563 162.663674 
L 108.578364 141.580796 
L 109.664165 89.861788 
L 110.749967 161.688484 
L 111.835768 173.714867 
L 112.921569 173.475941 
L 114.00737 139.849367 
L 115.093171 140.376463 
L 116.178972 119.951102 
L 117.264773 109.249064 
L 118.350575 141.042352 
L 119.436376 105.351816 
L 120.522177 126.797541 
L 121.607978 119.859087 
L 122.693779 105.351816 
L 123.77958 150.186805 
L 124.865382 83.060928 
L 125.951183 148.174291 
L 127.036984 160.540138 
L 128.122785 161.495459 
L 129.208586 149.559868 
L 130.294387 140.112298 
L 131.380189 114.848411 
L 132.46599 114.596657 
L 133.551791 140.376463 
L 134.637592 126.589913 
L 135.723393 93.138247 
L 136.809194 173.714867 
L 137.894995 161.688484 
L 138.980797 65.120765 
L 140.066598 114.179553 
L 141.152399 140.244225 
L 142.2382 174.195785 
L 143.324001 161.882175 
L 144.409802 109.78458 
L 145.495604 105.209907 
L 146.581405 161.688484 
L 147.667206 132.829963 
L 148.753007 174.195785 
L 149.838808 114.68045 
L 150.924609 139.58766 
L 152.01041 109.401549 
L 153.096212 126.797541 
L 154.182013 161.882175 
L 155.267814 160.162506 
L 156.353615 133.41184 
L 157.439416 114.262727 
L 158.525217 126.797541 
L 159.611019 148.93984 
L 160.69682 140.376463 
L 161.782621 114.262727 
L 162.868422 161.882175 
L 163.954223 69.755008 
L 165.040024 77.685073 
L 166.125825 161.688484 
L 167.211627 174.437794 
L 168.297428 120.599453 
L 169.383229 89.861788 
L 170.46903 188.095522 
L 171.554831 133.528941 
L 172.640632 89.807867 
L 173.726434 139.718361 
L 174.812235 150.820806 
L 175.898036 140.376463 
L 176.983837 161.688484 
L 178.069638 132.829963 
L 179.155439 100.651658 
L 180.24124 114.262727 
L 181.327042 161.688484 
L 182.412843 132.829963 
L 183.498644 187.480576 
L 184.584445 149.872463 
L 185.670246 150.820806 
L 186.756047 140.244225 
L 187.841849 149.715949 
L 188.92765 133.294982 
L 190.013451 105.351816 
L 191.099252 126.797541 
L 192.185053 61.06524 
L 193.270854 149.249 
L 194.356656 89.807867 
L 195.442457 96.374565 
L 196.528258 120.043268 
L 197.614059 149.094208 
L 198.69986 86.257379 
L 199.785661 140.77505 
L 200.871462 133.061992 
L 201.957264 148.785894 
L 203.043065 109.78458 
L 204.128866 114.179553 
L 205.214667 114.346024 
L 206.300468 119.583943 
L 208.472071 89.753997 
L 209.557872 109.631055 
L 210.643673 126.797541 
L 211.729474 96.556561 
L 212.815275 177.939982 
L 213.901076 176.916917 
L 214.986877 114.429444 
L 216.072679 133.294982 
L 217.15848 96.374565 
L 218.244281 177.170945 
L 219.330082 120.413447 
L 220.415883 161.688484 
L 221.501684 93.081094 
L 222.587486 126.589913 
L 223.673287 114.68045 
L 224.759088 140.908542 
L 225.844889 140.244225 
L 226.93069 163.45618 
L 228.016491 139.980679 
L 229.102292 126.589913 
L 230.188094 173.714867 
L 231.273895 132.714306 
L 232.359696 150.186805 
L 233.445497 92.796198 
L 234.531298 80.172418 
L 236.702901 140.244225 
L 238.874503 126.589913 
L 239.960304 141.042352 
L 241.046105 109.8615 
L 242.131906 114.596657 
L 243.217708 89.861788 
L 244.303509 109.8615 
L 245.38931 114.68045 
L 246.475111 174.195785 
L 247.560912 174.924957 
L 248.646713 126.589913 
L 249.732514 109.78458 
L 250.818316 132.598886 
L 251.904117 96.49583 
L 252.989918 140.509011 
L 254.075719 100.521109 
L 255.16152 140.376463 
L 256.247321 61.032912 
L 257.333123 96.67822 
L 258.418924 96.617358 
L 259.504725 109.401549 
L 260.590526 161.495459 
L 262.762128 120.228053 
L 263.847929 161.882175 
L 264.933731 100.651658 
L 266.019532 109.401549 
L 267.105333 100.913671 
L 268.191134 109.78458 
L 269.276935 53.568 
L 270.362736 126.797541 
L 271.448538 139.58766 
L 272.534339 109.477947 
L 273.62014 72.342008 
L 274.705941 161.882175 
L 275.791742 120.413447 
L 276.877543 126.693631 
L 277.963344 120.320673 
L 279.049146 100.390861 
L 280.134947 83.348494 
L 281.220748 141.445701 
L 282.306549 105.351816 
L 283.39235 105.351816 
L 284.478151 126.797541 
L 285.563953 96.67822 
L 286.649754 55.409211 
L 287.735555 133.061992 
L 288.821356 105.280817 
L 289.907157 93.024 
L 290.992958 105.280817 
L 292.07876 126.693631 
L 293.164561 100.651658 
L 294.250362 120.043268 
L 295.336163 105.280817 
L 296.421964 119.767223 
L 297.507765 100.913671 
L 298.593566 109.554449 
L 299.679368 132.829963 
L 300.765169 133.061992 
L 301.85097 89.807867 
L 302.936771 126.693631 
L 304.022572 133.178366 
L 305.108373 114.262727 
L 306.194175 109.707765 
L 307.279976 74.846768 
L 308.365777 126.693631 
L 309.451578 150.186805 
L 310.537379 114.346024 
L 311.62318 61.194739 
L 312.708981 69.792758 
L 313.794783 74.846768 
L 314.880584 119.675508 
L 315.966385 96.861202 
L 317.052186 89.807867 
L 318.137987 80.263318 
L 319.223788 173.714867 
L 320.30959 150.344637 
L 321.395391 173.475941 
L 322.481192 105.280817 
L 323.566993 65.399488 
L 324.652794 96.435165 
L 325.738595 133.41184 
L 326.824396 119.951102 
L 327.910198 132.945858 
L 328.995999 174.195785 
L 330.0818 109.631055 
L 331.167601 161.688484 
L 332.253402 161.688484 
L 333.339203 100.979365 
L 334.425005 126.693631 
L 335.510806 89.807867 
L 336.596607 140.509011 
L 337.682408 109.554449 
L 338.768209 93.024 
L 339.85401 109.554449 
L 340.939811 132.829963 
L 342.025613 133.41184 
L 343.111414 80.308823 
L 344.197215 69.792758 
L 345.283016 80.354364 
L 346.368817 86.308002 
L 347.454618 141.176481 
L 348.54042 140.77505 
L 349.626221 105.280817 
L 350.712022 109.707765 
L 351.797823 100.717047 
L 352.883624 96.739148 
L 353.969425 96.49583 
L 355.055227 86.156271 
L 356.141028 126.693631 
L 357.226829 141.31093 
L 358.31263 109.477947 
L 359.398431 109.631055 
L 360.484232 67.716797 
L 361.570033 83.060928 
L 362.655835 55.321545 
L 363.741636 161.688484 
L 364.827437 80.217849 
L 365.913238 140.908542 
L 366.999039 141.31093 
L 368.08484 77.685073 
L 369.170642 92.966963 
L 370.256443 83.300464 
L 371.342244 86.308002 
L 372.428045 114.93258 
L 373.513846 126.693631 
L 374.599647 100.390861 
L 375.685448 120.228053 
L 376.77125 126.693631 
L 377.857051 126.693631 
L 378.942852 114.262727 
L 380.028653 114.262727 
L 381.114454 92.966963 
L 382.200255 65.329678 
L 383.286057 114.764368 
L 384.371858 105.280817 
L 385.457659 72.263037 
L 386.54346 120.506373 
L 387.629261 61.162336 
L 388.715062 59.251558 
L 389.800863 93.024 
L 390.886665 86.409384 
L 391.972466 173.714867 
L 394.144068 89.807867 
L 395.229869 83.013143 
L 396.31567 114.512988 
L 397.401472 83.252475 
L 398.487273 109.631055 
L 398.487273 109.631055 
" style="fill:none;stroke:#ff0000;stroke-linecap:square;stroke-width:1.5;"/>
   </g>
   <g id="patch_3">
    <path d="M 57.6 307.584 
L 57.6 41.472 
" style="fill:none;stroke:#000000;stroke-linecap:square;stroke-linejoin:miter;stroke-width:0.8;"/>
   </g>
   <g id="patch_4">
    <path d="M 414.72 307.584 
L 414.72 41.472 
" style="fill:none;stroke:#000000;stroke-linecap:square;stroke-linejoin:miter;stroke-width:0.8;"/>
   </g>
   <g id="patch_5">
    <path d="M 57.6 307.584 
L 414.72 307.584 
" style="fill:none;stroke:#000000;stroke-linecap:square;stroke-linejoin:miter;stroke-width:0.8;"/>
   </g>
   <g id="patch_6">
    <path d="M 57.6 41.472 
L 414.72 41.472 
" style="fill:none;stroke:#000000;stroke-linecap:square;stroke-linejoin:miter;stroke-width:0.8;"/>
   </g>
   <g id="text_12">
    <!-- Population's average and best fitness -->
    <defs>
     <path d="M 19.671875 64.796875 
L 19.671875 37.40625 
L 32.078125 37.40625 
Q 38.96875 37.40625 42.71875 40.96875 
Q 46.484375 44.53125 46.484375 51.125 
Q 46.484375 57.671875 42.71875 61.234375 
Q 38.96875 64.796875 32.078125 64.796875 
z
M 9.8125 72.90625 
L 32.078125 72.90625 
Q 44.34375 72.90625 50.609375 67.359375 
Q 56.890625 61.8125 56.890625 51.125 
Q 56.890625 40.328125 50.609375 34.8125 
Q 44.34375 29.296875 32.078125 29.296875 
L 19.671875 29.296875 
L 19.671875 0 
L 9.8125 0 
z
" id="DejaVuSans-80"/>
     <path d="M 18.109375 8.203125 
L 18.109375 -20.796875 
L 9.078125 -20.796875 
L 9.078125 54.6875 
L 18.109375 54.6875 
L 18.109375 46.390625 
Q 20.953125 51.265625 25.265625 53.625 
Q 29.59375 56 35.59375 56 
Q 45.5625 56 51.78125 48.09375 
Q 58.015625 40.1875 58.015625 27.296875 
Q 58.015625 14.40625 51.78125 6.484375 
Q 45.5625 -1.421875 35.59375 -1.421875 
Q 29.59375 -1.421875 25.265625 0.953125 
Q 20.953125 3.328125 18.109375 8.203125 
z
M 48.6875 27.296875 
Q 48.6875 37.203125 44.609375 42.84375 
Q 40.53125 48.484375 33.40625 48.484375 
Q 26.265625 48.484375 22.1875 42.84375 
Q 18.109375 37.203125 18.109375 27.296875 
Q 18.109375 17.390625 22.1875 11.75 
Q 26.265625 6.109375 33.40625 6.109375 
Q 40.53125 6.109375 44.609375 11.75 
Q 48.6875 17.390625 48.6875 27.296875 
z
" id="DejaVuSans-112"/>
     <path d="M 8.5 21.578125 
L 8.5 54.6875 
L 17.484375 54.6875 
L 17.484375 21.921875 
Q 17.484375 14.15625 20.5 10.265625 
Q 23.53125 6.390625 29.59375 6.390625 
Q 36.859375 6.390625 41.078125 11.03125 
Q 45.3125 15.671875 45.3125 23.6875 
L 45.3125 54.6875 
L 54.296875 54.6875 
L 54.296875 0 
L 45.3125 0 
L 45.3125 8.40625 
Q 42.046875 3.421875 37.71875 1 
Q 33.40625 -1.421875 27.6875 -1.421875 
Q 18.265625 -1.421875 13.375 4.4375 
Q 8.5 10.296875 8.5 21.578125 
z
M 31.109375 56 
z
" id="DejaVuSans-117"/>
     <path d="M 9.421875 75.984375 
L 18.40625 75.984375 
L 18.40625 0 
L 9.421875 0 
z
" id="DejaVuSans-108"/>
     <path d="M 17.921875 72.90625 
L 17.921875 45.796875 
L 9.625 45.796875 
L 9.625 72.90625 
z
" id="DejaVuSans-39"/>
     <path id="DejaVuSans-32"/>
     <path d="M 2.984375 54.6875 
L 12.5 54.6875 
L 29.59375 8.796875 
L 46.6875 54.6875 
L 56.203125 54.6875 
L 35.6875 0 
L 23.484375 0 
z
" id="DejaVuSans-118"/>
     <path d="M 45.40625 27.984375 
Q 45.40625 37.75 41.375 43.109375 
Q 37.359375 48.484375 30.078125 48.484375 
Q 22.859375 48.484375 18.828125 43.109375 
Q 14.796875 37.75 14.796875 27.984375 
Q 14.796875 18.265625 18.828125 12.890625 
Q 22.859375 7.515625 30.078125 7.515625 
Q 37.359375 7.515625 41.375 12.890625 
Q 45.40625 18.265625 45.40625 27.984375 
z
M 54.390625 6.78125 
Q 54.390625 -7.171875 48.1875 -13.984375 
Q 42 -20.796875 29.203125 -20.796875 
Q 24.46875 -20.796875 20.265625 -20.09375 
Q 16.0625 -19.390625 12.109375 -17.921875 
L 12.109375 -9.1875 
Q 16.0625 -11.328125 19.921875 -12.34375 
Q 23.78125 -13.375 27.78125 -13.375 
Q 36.625 -13.375 41.015625 -8.765625 
Q 45.40625 -4.15625 45.40625 5.171875 
L 45.40625 9.625 
Q 42.625 4.78125 38.28125 2.390625 
Q 33.9375 0 27.875 0 
Q 17.828125 0 11.671875 7.65625 
Q 5.515625 15.328125 5.515625 27.984375 
Q 5.515625 40.671875 11.671875 48.328125 
Q 17.828125 56 27.875 56 
Q 33.9375 56 38.28125 53.609375 
Q 42.625 51.21875 45.40625 46.390625 
L 45.40625 54.6875 
L 54.390625 54.6875 
z
" id="DejaVuSans-103"/>
     <path d="M 45.40625 46.390625 
L 45.40625 75.984375 
L 54.390625 75.984375 
L 54.390625 0 
L 45.40625 0 
L 45.40625 8.203125 
Q 42.578125 3.328125 38.25 0.953125 
Q 33.9375 -1.421875 27.875 -1.421875 
Q 17.96875 -1.421875 11.734375 6.484375 
Q 5.515625 14.40625 5.515625 27.296875 
Q 5.515625 40.1875 11.734375 48.09375 
Q 17.96875 56 27.875 56 
Q 33.9375 56 38.25 53.625 
Q 42.578125 51.265625 45.40625 46.390625 
z
M 14.796875 27.296875 
Q 14.796875 17.390625 18.875 11.75 
Q 22.953125 6.109375 30.078125 6.109375 
Q 37.203125 6.109375 41.296875 11.75 
Q 45.40625 17.390625 45.40625 27.296875 
Q 45.40625 37.203125 41.296875 42.84375 
Q 37.203125 48.484375 30.078125 48.484375 
Q 22.953125 48.484375 18.875 42.84375 
Q 14.796875 37.203125 14.796875 27.296875 
z
" id="DejaVuSans-100"/>
     <path d="M 48.6875 27.296875 
Q 48.6875 37.203125 44.609375 42.84375 
Q 40.53125 48.484375 33.40625 48.484375 
Q 26.265625 48.484375 22.1875 42.84375 
Q 18.109375 37.203125 18.109375 27.296875 
Q 18.109375 17.390625 22.1875 11.75 
Q 26.265625 6.109375 33.40625 6.109375 
Q 40.53125 6.109375 44.609375 11.75 
Q 48.6875 17.390625 48.6875 27.296875 
z
M 18.109375 46.390625 
Q 20.953125 51.265625 25.265625 53.625 
Q 29.59375 56 35.59375 56 
Q 45.5625 56 51.78125 48.09375 
Q 58.015625 40.1875 58.015625 27.296875 
Q 58.015625 14.40625 51.78125 6.484375 
Q 45.5625 -1.421875 35.59375 -1.421875 
Q 29.59375 -1.421875 25.265625 0.953125 
Q 20.953125 3.328125 18.109375 8.203125 
L 18.109375 0 
L 9.078125 0 
L 9.078125 75.984375 
L 18.109375 75.984375 
z
" id="DejaVuSans-98"/>
     <path d="M 37.109375 75.984375 
L 37.109375 68.5 
L 28.515625 68.5 
Q 23.6875 68.5 21.796875 66.546875 
Q 19.921875 64.59375 19.921875 59.515625 
L 19.921875 54.6875 
L 34.71875 54.6875 
L 34.71875 47.703125 
L 19.921875 47.703125 
L 19.921875 0 
L 10.890625 0 
L 10.890625 47.703125 
L 2.296875 47.703125 
L 2.296875 54.6875 
L 10.890625 54.6875 
L 10.890625 58.5 
Q 10.890625 67.625 15.140625 71.796875 
Q 19.390625 75.984375 28.609375 75.984375 
z
" id="DejaVuSans-102"/>
    </defs>
    <g transform="translate(123.315 35.472)scale(0.12 -0.12)">
     <use xlink:href="#DejaVuSans-80"/>
     <use x="60.255859" xlink:href="#DejaVuSans-111"/>
     <use x="121.4375" xlink:href="#DejaVuSans-112"/>
     <use x="184.914062" xlink:href="#DejaVuSans-117"/>
     <use x="248.292969" xlink:href="#DejaVuSans-108"/>
     <use x="276.076172" xlink:href="#DejaVuSans-97"/>
     <use x="337.355469" xlink:href="#DejaVuSans-116"/>
     <use x="376.564453" xlink:href="#DejaVuSans-105"/>
     <use x="404.347656" xlink:href="#DejaVuSans-111"/>
     <use x="465.529297" xlink:href="#DejaVuSans-110"/>
     <use x="528.908203" xlink:href="#DejaVuSans-39"/>
     <use x="556.398438" xlink:href="#DejaVuSans-115"/>
     <use x="608.498047" xlink:href="#DejaVuSans-32"/>
     <use x="640.285156" xlink:href="#DejaVuSans-97"/>
     <use x="701.564453" xlink:href="#DejaVuSans-118"/>
     <use x="760.744141" xlink:href="#DejaVuSans-101"/>
     <use x="822.267578" xlink:href="#DejaVuSans-114"/>
     <use x="863.380859" xlink:href="#DejaVuSans-97"/>
     <use x="924.660156" xlink:href="#DejaVuSans-103"/>
     <use x="988.136719" xlink:href="#DejaVuSans-101"/>
     <use x="1049.660156" xlink:href="#DejaVuSans-32"/>
     <use x="1081.447266" xlink:href="#DejaVuSans-97"/>
     <use x="1142.726562" xlink:href="#DejaVuSans-110"/>
     <use x="1206.105469" xlink:href="#DejaVuSans-100"/>
     <use x="1269.582031" xlink:href="#DejaVuSans-32"/>
     <use x="1301.369141" xlink:href="#DejaVuSans-98"/>
     <use x="1364.845703" xlink:href="#DejaVuSans-101"/>
     <use x="1426.369141" xlink:href="#DejaVuSans-115"/>
     <use x="1478.46875" xlink:href="#DejaVuSans-116"/>
     <use x="1517.677734" xlink:href="#DejaVuSans-32"/>
     <use x="1549.464844" xlink:href="#DejaVuSans-102"/>
     <use x="1584.669922" xlink:href="#DejaVuSans-105"/>
     <use x="1612.453125" xlink:href="#DejaVuSans-116"/>
     <use x="1651.662109" xlink:href="#DejaVuSans-110"/>
     <use x="1715.041016" xlink:href="#DejaVuSans-101"/>
     <use x="1776.564453" xlink:href="#DejaVuSans-115"/>
     <use x="1828.664062" xlink:href="#DejaVuSans-115"/>
    </g>
   </g>
   <g id="legend_1">
    <g id="patch_7">
     <path d="M 334.779375 302.584 
L 407.72 302.584 
Q 409.72 302.584 409.72 300.584 
L 409.72 257.549625 
Q 409.72 255.549625 407.72 255.549625 
L 334.779375 255.549625 
Q 332.779375 255.549625 332.779375 257.549625 
L 332.779375 300.584 
Q 332.779375 302.584 334.779375 302.584 
z
" style="fill:#ffffff;opacity:0.8;stroke:#cccccc;stroke-linejoin:miter;"/>
    </g>
    <g id="line2d_24">
     <path d="M 336.779375 263.648062 
L 356.779375 263.648062 
" style="fill:none;stroke:#0000ff;stroke-linecap:square;stroke-width:1.5;"/>
    </g>
    <g id="line2d_25"/>
    <g id="text_13">
     <!-- average -->
     <g transform="translate(364.779375 267.148062)scale(0.1 -0.1)">
      <use xlink:href="#DejaVuSans-97"/>
      <use x="61.279297" xlink:href="#DejaVuSans-118"/>
      <use x="120.458984" xlink:href="#DejaVuSans-101"/>
      <use x="181.982422" xlink:href="#DejaVuSans-114"/>
      <use x="223.095703" xlink:href="#DejaVuSans-97"/>
      <use x="284.375" xlink:href="#DejaVuSans-103"/>
      <use x="347.851562" xlink:href="#DejaVuSans-101"/>
     </g>
    </g>
    <g id="line2d_26">
     <path d="M 336.779375 278.326188 
L 356.779375 278.326188 
" style="fill:none;stroke:#008000;stroke-dasharray:9.6,2.4,1.5,2.4;stroke-dashoffset:0;stroke-width:1.5;"/>
    </g>
    <g id="line2d_27"/>
    <g id="text_14">
     <!-- +1 sd -->
     <defs>
      <path d="M 46 62.703125 
L 46 35.5 
L 73.1875 35.5 
L 73.1875 27.203125 
L 46 27.203125 
L 46 0 
L 37.796875 0 
L 37.796875 27.203125 
L 10.59375 27.203125 
L 10.59375 35.5 
L 37.796875 35.5 
L 37.796875 62.703125 
z
" id="DejaVuSans-43"/>
     </defs>
     <g transform="translate(364.779375 281.826188)scale(0.1 -0.1)">
      <use xlink:href="#DejaVuSans-43"/>
      <use x="83.789062" xlink:href="#DejaVuSans-49"/>
      <use x="147.412109" xlink:href="#DejaVuSans-32"/>
      <use x="179.199219" xlink:href="#DejaVuSans-115"/>
      <use x="231.298828" xlink:href="#DejaVuSans-100"/>
     </g>
    </g>
    <g id="line2d_28">
     <path d="M 336.779375 293.004312 
L 356.779375 293.004312 
" style="fill:none;stroke:#ff0000;stroke-linecap:square;stroke-width:1.5;"/>
    </g>
    <g id="line2d_29"/>
    <g id="text_15">
     <!-- best -->
     <g transform="translate(364.779375 296.504312)scale(0.1 -0.1)">
      <use xlink:href="#DejaVuSans-98"/>
      <use x="63.476562" xlink:href="#DejaVuSans-101"/>
      <use x="125" xlink:href="#DejaVuSans-115"/>
      <use x="177.099609" xlink:href="#DejaVuSans-116"/>
     </g>
    </g>
   </g>
  </g>
 </g>
 <defs>
  <clipPath id="p0fa8baec65">
   <rect height="266.112" width="357.12" x="57.6" y="41.472"/>
  </clipPath>
 </defs>
</svg>
